<?xml version="1.0" encoding="UTF-8"?>
<svg width="20px" height="20px" viewBox="0 0 20 20" version="1.1" xmlns="http://www.w3.org/2000/svg" xmlns:xlink="http://www.w3.org/1999/xlink">
    <title>github</title>
    <g id="github" stroke="none" stroke-width="1" fill="none" fill-rule="evenodd">
        <path d="M0,10.2650628 C0,14.7484266 2.79851525,18.5603563 6.6989198,19.9597482 C7.2244234,20.0967756 7.14434666,19.7113861 7.14434666,19.4510341 L7.14434666,17.6722478 C4.11144013,18.0370831 3.99049088,15.9765343 3.78529423,15.6331095 C3.37323268,14.9111466 2.40230221,14.7270161 2.69174625,14.3835913 C3.38240813,14.0187559 4.08641615,14.4760847 4.90052968,15.713613 C5.4902615,16.6102858 6.64053052,16.4586993 7.22525754,16.3088256 C7.35074203,15.7778251 7.61962722,15.2939607 8.00100096,14.9128594 C4.85965717,14.3356317 3.54923469,12.3667199 3.54923469,10.0244085 C3.54923469,8.88879432 3.91458482,7.84481715 4.62943654,7.00209894 C4.17400008,5.61298413 4.67197731,4.42512824 4.7378738,4.2487055 C6.03745257,4.12880657 7.38541102,5.20361488 7.49051174,5.28754415 C8.22871919,5.08285954 9.0703591,4.9749505 10.0120949,4.9749505 C10.9588356,4.9749505 11.8054802,5.08628523 12.5478584,5.2935391 C12.7980982,5.09656228 14.0509655,4.1741969 15.2587897,4.28724445 C15.3230179,4.46366716 15.8093173,5.62411759 15.3814072,6.99353472 C16.1062685,7.83796579 16.4749552,8.89136358 16.4749552,10.0304035 C16.4749552,12.3761405 15.1570255,14.3467652 12.0065062,14.9171415 C12.551557,15.4683782 12.8581102,16.2212962 12.8573216,17.0068087 L12.8573216,19.5889179 C12.8748384,19.7953154 12.8573216,20 13.1934771,20 C17.1506027,18.6305829 20,14.7903912 20,10.2667757 C20,4.59384316 15.5215415,0 10.0012512,0 C4.47428786,-0.00256818593 0,4.59213033 0,10.2650628 Z" id="路径" fill="#8F95B0" fill-rule="nonzero"></path>
    </g>
</svg>