<?xml version="1.0" encoding="UTF-8"?>
<svg width="32px" height="20px" viewBox="0 0 32 20" version="1.1" xmlns="http://www.w3.org/2000/svg" xmlns:xlink="http://www.w3.org/1999/xlink">
    <title>medium</title>
    <g id="medium" stroke="none" stroke-width="1" fill="none" fill-rule="evenodd">
        <path d="M9,1 C13.9705627,1 18,5.02943725 18,10 C18,14.9705627 13.9705627,19 9,19 C4.02943725,19 0,14.9705627 0,10 C0,5.02943725 4.02943725,1 9,1 Z M23.5,2 C25.9852814,2 28,5.581722 28,10 C28,14.418278 25.9852814,18 23.5,18 C21.0147186,18 19,14.418278 19,10 C19,5.581722 21.0147186,2 23.5,2 Z M30.5,2.5 C31.3284271,2.5 32,5.85786438 32,10 C32,14.1421356 31.3284271,17.5 30.5,17.5 C29.6715729,17.5 29,14.1421356 29,10 C29,5.85786438 29.6715729,2.5 30.5,2.5 Z" id="形状结合" fill="#8F95B0"></path>
    </g>
</svg>