<?xml version="1.0" encoding="UTF-8"?>
<svg width="20px" height="20px" viewBox="0 0 20 20" version="1.1" xmlns="http://www.w3.org/2000/svg" xmlns:xlink="http://www.w3.org/1999/xlink">
    <title>twitter</title>
    <g id="twitter" stroke="none" stroke-width="1" fill="none" fill-rule="evenodd">
        <g id="编组-18">
            <rect id="矩形" x="0" y="0" width="20" height="20"></rect>
            <path d="M20,3.90051188 C19.4333902,4.71718365 18.748105,5.412988 17.9441444,5.98792492 C17.952672,6.10459232 17.9569358,6.27959341 17.9569358,6.51292821 C17.9569358,7.59606831 17.7960963,8.67734173 17.4744173,9.75674848 C17.1527383,10.8361552 16.664061,11.8714617 16.0083854,12.8626679 C15.3527099,13.8538741 14.5722001,14.7309796 13.6668562,15.4939843 C12.7615122,16.2569891 11.6702198,16.8652929 10.392979,17.3188957 C9.11573811,17.7724986 7.7494315,17.9995333 6.29405912,18 C4.00156339,18 1.90354368,17.3958962 0,16.1876887 C0.296096267,16.2208222 0.626065947,16.237389 0.989909039,16.237389 C2.89345272,16.237389 4.58972901,15.6624521 6.07873792,14.5125782 C5.19044912,14.4957781 4.39525298,14.2269764 3.69314952,13.7061732 C2.99104605,13.1853699 2.50876445,12.5208324 2.24630472,11.7125607 C2.52534584,11.7540943 2.78330491,11.7748611 3.02018192,11.7748611 C3.38402501,11.7748611 3.74360432,11.7291275 4.09891984,11.6376602 C3.15141179,11.445859 2.36663824,10.9812895 1.7445992,10.2439515 C1.12256017,9.50661358 0.811540648,8.6502749 0.811540648,7.67493547 L0.811540648,7.62523516 C1.38667804,7.9421038 2.00421641,8.11290487 2.66415577,8.13763836 C2.10559977,7.77083607 1.66145537,7.29156641 1.33172257,6.69982937 C1.00198977,6.10809234 0.837123366,5.46642167 0.837123366,4.77481734 C0.837123366,4.04167943 1.0233087,3.36244185 1.39567936,2.73710461 C2.41946182,3.97891237 3.66519803,4.97268525 5.132888,5.71842324 C6.60057798,6.46416123 8.17202009,6.87879716 9.84721433,6.96233101 C9.7794675,6.64546237 9.74559409,6.33722711 9.74559409,6.03762524 C9.74559409,4.92088492 10.1454425,3.96887897 10.9451393,3.18160739 C11.7448361,2.3943358 12.7112943,2.00046667 13.8445139,2 C15.028899,2 16.0270987,2.42490266 16.8391131,3.27470797 C17.7610385,3.09970687 18.6282452,2.77467151 19.4407334,2.29960187 C19.127582,3.2581412 18.5268619,3.9999125 17.6385731,4.52491578 C18.4254785,4.44138193 19.2121471,4.23301396 19.9985787,3.89981187 L20,3.90051188 Z" id="路径" fill="#8F95B0" fill-rule="nonzero"></path>
        </g>
    </g>
</svg>