<?xml version="1.0" encoding="UTF-8"?>
<svg width="98px" height="24px" viewBox="0 0 98 24" version="1.1" xmlns="http://www.w3.org/2000/svg" xmlns:xlink="http://www.w3.org/1999/xlink">
    <title>logo</title>
    <defs>
        <linearGradient x1="10.87985%" y1="0%" x2="92.0143498%" y2="101.88879%" id="linearGradient-1">
            <stop stop-color="#4883FF" offset="0%"></stop>
            <stop stop-color="#062EF5" offset="100%"></stop>
        </linearGradient>
    </defs>
    <g id="页面-2" stroke="none" stroke-width="1" fill="none" fill-rule="evenodd">
        <g id="Page-3" transform="translate(-240.000000, -28.000000)">
            <g id="logo" transform="translate(240.000000, 28.000000)">
                <path d="M20.9369996,-4.14201891e-07 C21.5240003,-7.86392669e-05 21.9999218,0.475716011 22,1.06271668 L22,1.06285832 L22,1.55009409 C22,1.92075329 21.8627633,2.27828676 21.6147539,2.55374929 L2.75287805,23.5035235 C2.46842061,23.8194687 2.06325636,23.9998684 1.63812415,23.9998684 L1.153,23.9998684 C0.516215683,23.9998684 -3.27156362e-15,23.4836527 0,22.8468684 L0,16.675673 C-2.04379726e-15,16.304988 0.1372558,15.9474315 0.385296139,15.6719622 L14.0492073,0.497058167 C14.3336165,0.18119827 14.7386748,0.000825588881 15.1637113,0.000768947534 L20.9369996,-4.14201891e-07 Z M15.7129719,14.6828602 C15.7519271,14.7179281 15.7890175,14.7550137 15.8240904,14.7939644 L21.6139453,21.223962 C21.8619912,21.4994325 21.9992504,21.8569931 21.9992504,22.2276827 L21.9992504,22.8258679 C21.9992504,23.4742505 21.4736325,23.9998684 20.8252499,23.9998684 L15.3620751,23.9998684 C14.9369726,23.9998684 14.5318338,23.8194939 14.2473783,23.5035869 L10.9039237,19.7904563 C10.3902351,19.2199706 10.3901799,18.3537125 10.9037957,17.7831613 L13.5945706,14.7941087 C14.1488306,14.1784079 15.0972711,14.1286003 15.7129719,14.6828602 Z M5.5,0.000857928282 C6.32842712,0.000857928282 7,0.672430804 7,1.50085793 L7,4.36604803 C7,4.73673554 6.86274233,5.09429426 6.61469896,5.36976424 L1.74313264,10.7799886 C1.37357453,11.1904094 0.741276683,11.2235352 0.330855859,10.8539771 C0.120250283,10.6643401 1.14609723e-13,10.3942469 1.14130927e-13,10.1108445 L1.14130927e-13,1.50085793 C1.14029474e-13,0.672430804 0.671572875,0.000857928282 1.5,0.000857928282 L5.5,0.000857928282 Z" id="形状结合" fill="url(#linearGradient-1)"></path>
                <path d="M34.7418398,18.8395043 L34.7418398,12.7602839 L39.7163205,18.8395043 L43.1827893,18.8395043 L37.3857567,11.9588433 L43.0261128,5.19546629 L39.7163205,5.19546629 L34.7418398,11.3137813 L34.7418398,5.19546629 L32,5.19546629 L32,18.8395043 L34.7418398,18.8395043 Z M49.704451,18.9763356 C50.7097923,18.9763356 51.5780415,18.7906359 52.3091988,18.4192366 C53.0403561,18.0478373 53.5952522,17.5493803 53.9738872,16.9238657 C54.3525223,16.2983511 54.5418398,15.6207102 54.5418398,14.8909431 C54.5418398,14.0438921 54.3394659,13.3597354 53.9347181,12.8384732 C53.5299703,12.317211 53.0468843,11.9262644 52.4854599,11.6656333 C51.9240356,11.4050022 51.1994065,11.1443711 50.3115727,10.88374 C49.6587537,10.6882667 49.152819,10.5155986 48.7937685,10.3657357 C48.4347181,10.2158728 48.1344214,10.0203995 47.8928783,9.77931573 C47.6513353,9.53823196 47.5305638,9.23524831 47.5305638,8.87036477 C47.5305638,8.34910258 47.6905045,7.95164015 48.0103858,7.6779775 C48.3302671,7.40431485 48.7578635,7.26748352 49.2931751,7.26748352 C49.9068249,7.26748352 50.3997033,7.42060429 50.7718101,7.72684583 C51.1439169,8.03308737 51.3430267,8.42077613 51.3691395,8.8899121 L51.3691395,8.8899121 L54.3851632,8.8899121 C54.2937685,7.66494594 53.8074184,6.71038455 52.9261128,6.02622792 C52.0448071,5.34207128 50.8991098,4.99999297 49.4890208,4.99999297 C48.5489614,4.99999297 47.7133531,5.15962952 46.9821958,5.47890261 C46.2510386,5.79817571 45.6830861,6.25753802 45.2783383,6.85698954 C44.8735905,7.45644107 44.6712166,8.16014503 44.6712166,8.96810143 C44.6712166,9.82818406 44.8703264,10.5155986 45.268546,11.030345 C45.6667656,11.5450914 46.1433234,11.9295223 46.6982196,12.1836376 C47.2531157,12.4377529 47.9744807,12.6951261 48.8623145,12.9557572 C49.5151335,13.138199 50.0275964,13.3043513 50.3997033,13.4542142 C50.7718101,13.6040771 51.0818991,13.8093241 51.3299703,14.0699552 C51.5780415,14.3305863 51.7020772,14.6628909 51.7020772,15.0668691 C51.7020772,15.5620682 51.5192878,15.9627885 51.1537092,16.2690301 C50.7881306,16.5752716 50.2854599,16.7283924 49.6456973,16.7283924 C49.0189911,16.7283924 48.5261128,16.5654979 48.1670623,16.2397091 C47.8080119,15.9139202 47.6089021,15.4708473 47.5697329,14.9104905 L47.5697329,14.9104905 L44.6320475,14.9104905 C44.6451039,15.74451 44.8735905,16.4677613 45.3175074,17.0802444 C45.7614243,17.6927274 46.3652819,18.1618634 47.1290801,18.4876523 C47.8928783,18.8134412 48.7513353,18.9763356 49.704451,18.9763356 Z M61.8664688,18.8395043 L63.8445104,11.2746866 L65.8225519,18.8395043 L68.779822,18.8395043 L71.9525223,8.01028215 L69.3281899,8.01028215 L67.4089021,16.2397091 L65.3721068,8.01028215 L62.4735905,8.01028215 L60.3976261,16.2592564 L58.4783383,8.01028215 L55.6973294,8.01028215 L58.8896142,18.8395043 L61.8664688,18.8395043 Z M77.6712166,19.0154303 C78.4807122,19.0154303 79.195549,18.8492779 79.815727,18.5169733 C80.435905,18.1846686 80.9222552,17.764401 81.2747774,17.2561703 L81.2747774,17.2561703 L81.2747774,18.8395043 L84.0362018,18.8395043 L84.0362018,8.01028215 L81.2747774,8.01028215 L81.2747774,9.5545214 C80.9091988,9.05932232 80.4228487,8.64882834 79.815727,8.32303947 C79.2086053,7.99725059 78.5002967,7.83435616 77.6908012,7.83435616 C76.7637982,7.83435616 75.9249258,8.06240837 75.174184,8.51851279 C74.4234421,8.97461721 73.8293769,9.62619496 73.3919881,10.473246 C72.9545994,11.3202971 72.735905,12.2911479 72.735905,13.3857985 C72.735905,14.4934807 72.9545994,15.4741052 73.3919881,16.3276721 C73.8293769,17.1812389 74.4234421,17.8425903 75.174184,18.3117263 C75.9249258,18.7808623 76.75727,19.0154303 77.6712166,19.0154303 Z M78.3958457,16.6111084 C77.8997033,16.6111084 77.4329377,16.4807928 76.995549,16.2201617 C76.5581602,15.9595306 76.205638,15.5848734 75.9379822,15.0961901 C75.6703264,14.6075068 75.5364985,14.0373763 75.5364985,13.3857985 C75.5364985,12.7342208 75.6703264,12.170606 75.9379822,11.6949543 C76.205638,11.2193025 76.5548961,10.8576769 76.9857567,10.6100773 C77.4166172,10.3624778 77.8866469,10.238678 78.3958457,10.238678 C78.9050445,10.238678 79.3816024,10.3657357 79.8255193,10.619851 C80.2694362,10.8739663 80.6219585,11.2388499 80.8830861,11.7145016 C81.1442136,12.1901534 81.2747774,12.7602839 81.2747774,13.4248932 C81.2747774,14.0895025 81.1442136,14.659633 80.8830861,15.1352848 C80.6219585,15.6109365 80.2694362,15.9758201 79.8255193,16.2299354 C79.3816024,16.4840507 78.9050445,16.6111084 78.3958457,16.6111084 Z M89.4611276,24 L89.4611276,17.295265 C89.8397626,17.7904641 90.3326409,18.2009581 90.9397626,18.5267469 C91.5468843,18.8525358 92.2486647,19.0154303 93.0451039,19.0154303 C93.9721068,19.0154303 94.8109792,18.7808623 95.5617211,18.3117263 C96.3124629,17.8425903 96.9065282,17.1812389 97.3439169,16.3276721 C97.7813056,15.4741052 98,14.4934807 98,13.3857985 C98,12.2781164 97.7813056,11.3040076 97.3439169,10.4634724 C96.9065282,9.62293707 96.3124629,8.97461721 95.5617211,8.51851279 C94.8109792,8.06240837 93.9721068,7.83435616 93.0451039,7.83435616 C92.2486647,7.83435616 91.5403561,8.00050848 90.920178,8.33281313 C90.3,8.66511778 89.8136499,9.07886965 89.4611276,9.57406874 L89.4611276,9.57406874 L89.4611276,8.01028215 L86.7192878,8.01028215 L86.7192878,24 L89.4611276,24 Z M92.3204748,16.6111084 C91.8243323,16.6111084 91.3575668,16.4840507 90.920178,16.2299354 C90.4827893,15.9758201 90.1302671,15.6076787 89.8626113,15.1255111 C89.5949555,14.6433436 89.4611276,14.076471 89.4611276,13.4248932 C89.4611276,12.7733155 89.5949555,12.2064428 89.8626113,11.7242753 C90.1302671,11.2421078 90.4827893,10.8739663 90.920178,10.619851 C91.3575668,10.3657357 91.8243323,10.238678 92.3204748,10.238678 C92.8296736,10.238678 93.3029674,10.3624778 93.7403561,10.6100773 C94.1777448,10.8576769 94.5302671,11.2193025 94.7979228,11.6949543 C95.0655786,12.170606 95.1994065,12.7342208 95.1994065,13.3857985 C95.1994065,14.0504078 95.0655786,14.6237963 94.7979228,15.1059638 C94.5302671,15.5881313 94.1777448,15.9595306 93.7403561,16.2201617 C93.3029674,16.4807928 92.8296736,16.6111084 92.3204748,16.6111084 Z" id="KSwap" fill="#23252B" fill-rule="nonzero"></path>
            </g>
        </g>
    </g>
</svg>